# xmcd
#
# Track frame offsets:
#	182
#	18965
#	36087
#	60015
#	79607
#	101265
#	119195
#	141195
#	157802
#	182367
#	203052
#
# Disc length: 2969 seconds
#
# Revision: 0
# Processed by: cddbd v1.5.2PL0 Copyright (c) Steve Scherf et al.
# Submitted via: audiograbber 1.83.01
#
DISCID=7c0b970b
DTITLE=Ohio Players - Back
DYEAR=1988
DGENRE=Soul
TTITLE0=Get 2 the good part
TTITLE1=Sweat
TTITLE2=From now on (let's play)
TTITLE3=Show off
TTITLE4=Just to show my love
TTITLE5=I'm madd!
TTITLE6=Vibe alive
TTITLE7=Rock the house
TTITLE8=Just a minute
TTITLE9=Reputation
TTITLE10=Try
EXTD=
EXTT0=
EXTT1=
EXTT2=
EXTT3=
EXTT4=
EXTT5=
EXTT6=
EXTT7=
EXTT8=
EXTT9=
EXTT10=
PLAYORDER=
